<svg xmlns="http://www.w3.org/2000/svg" viewBox="0 0 40 40" id="imdb">
  <path d="M6 14.51h2.9v11.16H6Zm0 0h2.9v11.16H6Zm8.38 5.14C14.13 17.94 14 17 14 16.81c-.12-.91-.23-1.7-.35-2.38H9.86v11.16h2.54v-7.37l1.07 7.37h1.81l1-7.53v7.53h2.54V14.43h-3.77Zm0 0C14.13 17.94 14 17 14 16.81c-.12-.91-.23-1.7-.35-2.38H9.86v11.16h2.54v-7.37l1.07 7.37h1.81l1-7.53v7.53h2.54V14.43h-3.77Zm9.24-2.9a6.09 6.09 0 0 1 .05 1v4.33a3.92 3.92 0 0 1-.14 1.37c-.1.16-.36.25-.77.25v-7.36a1.35 1.35 0 0 1 .64.1.44.44 0 0 1 .22.31Zm1.31 8.73a2.06 2.06 0 0 0 .87-.4 1.43 1.43 0 0 0 .49-.79 8.42 8.42 0 0 0 .16-2v-3.93a14.8 14.8 0 0 0-.11-2.12 2 2 0 0 0-1.61-1.61 11.79 11.79 0 0 0-2.71-.2h-2.16v11.16h3.51a10.66 10.66 0 0 0 1.56-.11Zm-1.31-8.73a6.09 6.09 0 0 1 .05 1v4.33a3.92 3.92 0 0 1-.14 1.37c-.1.16-.36.25-.77.25v-7.36a1.35 1.35 0 0 1 .64.1.44.44 0 0 1 .22.31Zm1.31 8.73a2.06 2.06 0 0 0 .87-.4 1.43 1.43 0 0 0 .49-.79 8.42 8.42 0 0 0 .16-2v-3.93a14.8 14.8 0 0 0-.11-2.12 2 2 0 0 0-1.61-1.61 11.79 11.79 0 0 0-2.71-.2h-2.16v11.16h3.51a10.66 10.66 0 0 0 1.56-.11Zm6.19-1.67c-.05.14-.28.21-.46.21a.34.34 0 0 1-.35-.2 3.09 3.09 0 0 1-.08-.94v-2.95a3.52 3.52 0 0 1 .07-.93.32.32 0 0 1 .34-.19c.17 0 .41.07.47.21a3 3 0 0 1 .09.93v2.86a5.24 5.24 0 0 1-.08 1Zm-3.69 1.68H30c.11-.42.17-.66.18-.71a2.12 2.12 0 0 0 1.82.86 2 2 0 0 0 1.19-.36 1.56 1.56 0 0 0 .63-.85 6.1 6.1 0 0 0 .14-1.5V19.8a11.45 11.45 0 0 0 0-1.32 1.39 1.39 0 0 0-.26-.63 1.44 1.44 0 0 0-.65-.5 2.52 2.52 0 0 0-1-.18 2.75 2.75 0 0 0-1 .2 2.18 2.18 0 0 0-.77.6v-3.64h-2.8Zm3.69-1.68c-.05.14-.28.21-.46.21a.34.34 0 0 1-.35-.2 3.09 3.09 0 0 1-.08-.94v-2.95a3.52 3.52 0 0 1 .07-.93.32.32 0 0 1 .34-.19c.17 0 .41.07.47.21a3 3 0 0 1 .09.93v2.86a5.24 5.24 0 0 1-.08 1Zm-3.69 1.68H30c.11-.42.17-.66.18-.71a2.12 2.12 0 0 0 1.82.86 2 2 0 0 0 1.19-.36 1.56 1.56 0 0 0 .63-.85 6.1 6.1 0 0 0 .14-1.5V19.8a11.45 11.45 0 0 0 0-1.32 1.39 1.39 0 0 0-.26-.63 1.44 1.44 0 0 0-.65-.5 2.52 2.52 0 0 0-1-.18 2.75 2.75 0 0 0-1 .2 2.18 2.18 0 0 0-.77.6v-3.64h-2.8Z"></path>
</svg>
